HIERARCHY
ROOT SpineBase
{
  OFFSET 0.000000 0.000000 0.000000
  CHANNELS 6 Xposition Yposition Zposition Zrotation Xrotation Yrotation
  JOINT SpineMid
  {
    OFFSET 0.000000 31.953400 -0.000000
    CHANNELS 3 Zrotation Xrotation Yrotation
    JOINT SpineShoulder
    {
      OFFSET -0.028502 23.581741 -0.823783
      CHANNELS 3 Zrotation Xrotation Yrotation
      JOINT Neck
      {
        OFFSET -0.030202 7.749510 -0.617312
        CHANNELS 3 Zrotation Xrotation Yrotation
        JOINT Head
        {
          OFFSET -4.489953 13.988706 1.087998
          CHANNELS 3 Zrotation Xrotation Yrotation
          End Site
          {
            OFFSET 0 0 0
          }
        }
      }
      JOINT ShoulderLeft
      {
        OFFSET -3.205056 -0.948681 -19.305075
        CHANNELS 3 Zrotation Xrotation Yrotation
        JOINT ElbowLeft
        {
          OFFSET -20.974659 -19.031692 2.255070
          CHANNELS 3 Zrotation Xrotation Yrotation
          JOINT WristLeft
          {
            OFFSET -12.589254 -3.351762 -17.662845
            CHANNELS 3 Zrotation Xrotation Yrotation
            JOINT HandLeft
            {
              OFFSET -4.182643 -1.117884 -5.462502
              CHANNELS 3 Zrotation Xrotation Yrotation
              JOINT HandTipLeft
              {
                OFFSET -2.340214 2.774213 -1.671584
                CHANNELS 3 Zrotation Xrotation Yrotation
                End Site
                {
                  OFFSET 0 0 0
                }
              }
              JOINT ThumbLeft
              {
                OFFSET -1.417308 -5.911126 -1.835069
                CHANNELS 3 Zrotation Xrotation Yrotation
                End Site
                {
                  OFFSET 0 0 0
                }
              }
            }
          }
        }
      }
      JOINT ShoulderRight
      {
        OFFSET 10.395747 -3.749751 -11.835146
        CHANNELS 3 Zrotation Xrotation Yrotation
        JOINT ElbowRight
        {
          OFFSET 5.817514 -19.642233 -7.024543
          CHANNELS 3 Zrotation Xrotation Yrotation
          JOINT WristRight
          {
            OFFSET -23.344993 -0.701337 -5.390451
            CHANNELS 3 Zrotation Xrotation Yrotation
            JOINT HandRight
            {
              OFFSET -7.218010 1.278512 -1.685929
              CHANNELS 3 Zrotation Xrotation Yrotation
              JOINT HandTipRight
              {
                OFFSET -6.694419 -4.045946 2.215135
                CHANNELS 3 Zrotation Xrotation Yrotation
                End Site
                {
                  OFFSET 0 0 0
                }
              }
              JOINT ThumbRight
              {
                OFFSET -3.129180 2.257642 -5.171983
                CHANNELS 3 Zrotation Xrotation Yrotation
                End Site
                {
                  OFFSET 0 0 0
                }
              }
            }
          }
        }
      }
    }
  }
  JOINT HipLeft
  {
    OFFSET -6.893447 0.061567 0.649422
    CHANNELS 3 Zrotation Xrotation Yrotation
    JOINT KneeLeft
    {
      OFFSET 2.616175 -39.004788 5.627732
      CHANNELS 3 Zrotation Xrotation Yrotation
      JOINT AnkleLeft
      {
        OFFSET 9.667423 -36.115743 7.534728
        CHANNELS 3 Zrotation Xrotation Yrotation
        JOINT FootLeft
        {
          OFFSET -2.432463 -8.985221 -5.031750
          CHANNELS 3 Zrotation Xrotation Yrotation
          End Site
          {
            OFFSET 0 0 0
          }
        }
      }
    }
  }
  JOINT HipRight
  {
    OFFSET 6.120052 0.663924 -8.388156
    CHANNELS 3 Zrotation Xrotation Yrotation
    JOINT KneeRight
    {
      OFFSET 5.644396 -35.382949 -4.037679
      CHANNELS 3 Zrotation Xrotation Yrotation
      JOINT AnkleRight
      {
        OFFSET 13.549674 -37.116691 8.134079
        CHANNELS 3 Zrotation Xrotation Yrotation
        JOINT FootRight
        {
          OFFSET -2.999736 -9.053654 -2.649494
          CHANNELS 3 Zrotation Xrotation Yrotation
          End Site
          {
            OFFSET 0 0 0
          }
        }
      }
    }
  }
}
MOTION
Frames: 9
Frame Time: 0.033333
34.211263 79.028643 377.264267 4.663914 -3.481454 41.714708 3.063702 0.666722 -41.523764 -0.568797 -0.490654 0.271296 5.935073 29.069343 4.284306 0.000000 0.000000 0.000000 -23.012576 60.108604 -53.268965 -2.383664 -3.919730 28.007171 -34.423085 4.409284 13.724180 -16.363049 -13.382623 10.563708 0.000000 0.000000 0.000000 0.000000 0.000000 0.000000 -38.861140 14.898762 21.246048 3.146833 -0.903979 -40.582495 -48.485197 -15.214930 20.263173 43.329145 33.194185 -71.341163 0.000000 0.000000 0.000000 0.000000 0.000000 0.000000 5.032217 1.585674 -40.778425 -7.715483 8.246620 1.218455 -3.695487 -4.381440 -1.848741 0.000000 0.000000 0.000000 1.748186 4.909807 -41.877574 -1.280930 3.258584 2.040254 -1.190754 -1.401459 -3.167897 0.000000 0.000000 0.000000
34.056223 78.758017 377.570957 6.388025 -1.423116 38.154479 2.824416 0.830348 -37.966138 -0.551333 -0.407485 0.342083 4.254900 27.683033 4.587776 0.000000 0.000000 0.000000 -34.720249 56.592180 -45.252013 14.239053 2.047218 24.438194 -69.885515 5.879138 29.723105 2.480448 -21.589549 -1.396176 0.000000 0.000000 0.000000 0.000000 0.000000 0.000000 -43.183704 12.804612 21.366162 7.100815 -2.742940 -40.376760 -49.455841 -19.808153 29.436477 49.638729 27.924423 -80.262921 0.000000 0.000000 0.000000 0.000000 0.000000 0.000000 3.417875 -0.662861 -36.807009 -10.796144 10.250494 1.206165 -8.978169 -8.166715 1.107397 0.000000 0.000000 0.000000 -1.688256 5.670542 -37.982188 0.040982 3.012181 2.007629 0.620555 1.671020 -5.019789 0.000000 0.000000 0.000000
33.923860 78.872647 377.599841 7.859445 0.215174 36.063380 2.558926 0.840620 -35.911050 -0.363158 -0.148915 0.404592 3.991993 26.245169 4.338823 0.000000 0.000000 0.000000 -36.700003 48.754759 -40.571876 16.248088 6.343955 15.372902 -90.588380 -28.306790 46.516617 30.160742 -14.970965 -25.159003 0.000000 0.000000 0.000000 0.000000 0.000000 0.000000 -47.191588 10.577212 21.066078 10.022148 -4.111508 -37.544807 -48.810885 -20.117661 34.886368 45.639045 24.530247 -82.709406 0.000000 0.000000 0.000000 0.000000 0.000000 0.000000 2.128226 -2.703189 -34.401072 -13.922410 12.524857 1.382374 -6.081267 -4.538763 -0.417643 0.000000 0.000000 0.000000 -4.599181 5.605202 -35.762709 0.927502 3.344676 2.103097 1.831035 3.415486 -6.306118 0.000000 0.000000 0.000000
33.775950 79.329896 377.381667 8.960499 1.175606 36.095100 2.187890 0.707718 -35.967963 -0.154069 0.134697 0.443694 4.779208 25.522754 3.872024 0.000000 0.000000 0.000000 -35.181568 40.181775 -36.230443 6.662387 10.101880 11.227674 -96.644965 -61.257707 55.952171 56.048821 -20.169975 -48.831492 0.000000 0.000000 0.000000 0.000000 0.000000 0.000000 -50.820589 8.339574 20.763591 11.644660 -4.241147 -32.816352 -42.359822 -16.384202 37.304975 34.486267 27.113325 -84.422245 0.000000 0.000000 0.000000 0.000000 0.000000 0.000000 0.718803 -3.750116 -34.340508 -15.548885 13.987699 1.613917 -3.633901 -0.660235 -1.765189 0.000000 0.000000 0.000000 -6.190521 4.998635 -35.894998 0.911013 4.128753 2.324464 1.682589 2.748141 -6.329247 0.000000 0.000000 0.000000
33.369860 79.592240 377.640301 9.893832 2.100466 33.503386 1.310014 0.510594 -33.396789 0.045373 0.449111 0.454349 6.742801 25.019283 3.216431 0.000000 0.000000 0.000000 -35.105555 33.292679 -31.731256 -2.331101 12.226018 14.788564 -86.975284 -53.037421 59.034757 55.544241 -26.089899 -44.203045 0.000000 0.000000 0.000000 0.000000 0.000000 0.000000 -54.515932 6.380180 20.934260 12.996460 -4.978532 -26.155265 -33.620270 -8.679427 32.768618 18.469979 31.073743 -79.679003 0.000000 0.000000 0.000000 0.000000 0.000000 0.000000 -0.091562 -4.872308 -31.626777 -16.823137 14.827881 1.708437 -0.299320 2.398599 -3.515785 0.000000 0.000000 0.000000 -6.335836 5.067763 -33.372460 0.289892 3.170227 2.366639 3.565095 3.754924 -7.523561 0.000000 0.000000 0.000000
32.849716 80.064719 377.977411 10.578241 2.918110 31.891212 0.910963 0.534668 -31.847347 0.180515 0.584382 0.473499 9.296335 23.786117 2.469385 0.000000 0.000000 0.000000 -31.966479 26.478116 -28.454312 -12.565648 9.665216 23.611956 -66.309506 -26.410604 55.165345 44.775269 -28.131136 -33.503261 0.000000 0.000000 0.000000 0.000000 0.000000 0.000000 -58.628894 3.898382 20.788794 16.891294 -7.038934 -18.919536 -24.117977 -0.421951 21.879392 -1.143481 32.910630 -68.676364 0.000000 0.000000 0.000000 0.000000 0.000000 0.000000 -1.130744 -5.521405 -30.038711 -16.466535 14.942975 1.744827 -1.676044 1.039784 -2.821128 0.000000 0.000000 0.000000 -6.060568 4.762350 -31.915963 -0.682814 2.511961 2.447775 2.984059 2.732750 -7.230301 0.000000 0.000000 0.000000
32.288827 80.539224 378.562983 10.829093 3.218302 29.828034 0.549692 0.647692 -29.821429 0.298242 0.716910 0.471407 11.894813 23.940369 1.970005 0.000000 0.000000 0.000000 -29.654730 19.619762 -23.831507 -21.270201 6.339154 35.584598 -29.156263 2.322644 25.599190 29.058778 -19.271319 -8.117836 0.000000 0.000000 0.000000 0.000000 0.000000 0.000000 -63.437516 1.089117 20.965556 24.779481 -9.790574 -13.517013 -20.027502 4.019483 14.594943 -14.025304 29.921547 -60.028915 0.000000 0.000000 0.000000 0.000000 0.000000 0.000000 -1.151628 -5.372868 -27.986237 -15.920124 13.932623 1.482412 2.007016 2.844514 -4.873663 0.000000 0.000000 0.000000 -4.782698 5.287443 -29.908384 -1.660742 1.078385 2.395396 2.708419 2.522546 -7.303809 0.000000 0.000000 0.000000
31.888834 80.985369 378.946477 11.069999 3.734033 26.766422 0.591191 0.577386 -26.795806 0.226175 0.689817 0.482239 12.855169 23.075288 1.724478 0.000000 0.000000 0.000000 -29.005632 13.760109 -19.630849 -24.446748 2.320867 47.448557 3.331367 -6.061297 -4.932619 12.249924 -0.855746 -3.502280 0.000000 0.000000 0.000000 0.000000 0.000000 0.000000 -67.688265 -1.669412 20.416271 33.384065 -12.515543 -7.605764 -15.950566 7.703086 4.153551 -27.124217 24.601154 -49.669886 0.000000 0.000000 0.000000 0.000000 0.000000 0.000000 -1.966286 -5.835968 -25.055337 -15.098247 13.794456 1.511897 8.962924 6.555864 -9.168113 0.000000 0.000000 0.000000 -3.920558 5.476714 -26.925031 -2.602145 -0.120029 2.339081 2.149653 2.215119 -7.241096 0.000000 0.000000 0.000000
31.571420 81.393850 379.233267 11.412012 4.119431 22.916066 0.650769 0.628217 -22.983669 0.193370 0.577993 0.508650 12.564155 22.080716 1.684903 0.000000 0.000000 0.000000 -27.542137 8.256020 -15.557925 -22.897114 -0.222415 54.771038 1.854452 -5.600623 -4.413980 19.473878 -6.233752 -18.940625 0.000000 0.000000 0.000000 0.000000 0.000000 0.000000 -72.281279 -5.227977 18.934518 44.571044 -14.247743 -2.388429 -18.536497 10.935230 0.683085 -35.909237 15.120669 -42.176193 0.000000 0.000000 0.000000 0.000000 0.000000 0.000000 -3.011246 -6.259961 -21.411982 -13.917589 13.670553 1.575872 18.541436 10.774215 -15.672669 0.000000 0.000000 0.000000 -3.269785 5.689390 -23.162287 -3.593559 -1.124039 2.287457 0.361130 0.642123 -6.408235 0.000000 0.000000 0.000000
